HIERARCHY
ROOT Hips
{
	OFFSET 0.00000 0.00000 0.00000
	CHANNELS 6 Xposition Yposition Zposition Zrotation Yrotation Xrotation 
	JOINT LHipJoint
	{
		OFFSET 0 0 0
		CHANNELS 3 Zrotation Yrotation Xrotation
		JOINT LeftUpLeg
		{
			OFFSET 1.73240 -1.89999 0.57994
			CHANNELS 3 Zrotation Yrotation Xrotation
			JOINT LeftLeg
			{
				OFFSET 2.43106 -6.67930 0.00000
				CHANNELS 3 Zrotation Yrotation Xrotation
				JOINT LeftFoot
				{
					OFFSET 2.78854 -7.66147 0.00000
					CHANNELS 3 Zrotation Yrotation Xrotation
					JOINT LeftToeBase
					{
						OFFSET 0.17314 -0.47571 2.01064
						CHANNELS 3 Zrotation Yrotation Xrotation
						End Site
						{
							OFFSET 0.00000 -0.00000 1.04147
						}
					}
				}
			}
		}
	}
	JOINT RHipJoint
	{
		OFFSET 0 0 0
		CHANNELS 3 Zrotation Yrotation Xrotation
		JOINT RightUpLeg
		{
			OFFSET -1.57078 -1.89998 0.57994
			CHANNELS 3 Zrotation Yrotation Xrotation
			JOINT RightLeg
			{
				OFFSET -2.50166 -6.87326 0.00000
				CHANNELS 3 Zrotation Yrotation Xrotation
				JOINT RightFoot
				{
					OFFSET -2.77304 -7.61886 0.00000
					CHANNELS 3 Zrotation Yrotation Xrotation
					JOINT RightToeBase
					{
						OFFSET -0.23513 -0.64602 2.11039
						CHANNELS 3 Zrotation Yrotation Xrotation
						End Site
						{
							OFFSET -0.00000 -0.00000 1.10597
						}
					}
				}
			}
		}
	}
	JOINT LowerBack
	{
		OFFSET 0 0 0
		CHANNELS 3 Zrotation Yrotation Xrotation
		JOINT Spine
		{
			OFFSET -0.00908 2.00015 -0.35323
			CHANNELS 3 Zrotation Yrotation Xrotation
			JOINT Spine1
			{
				OFFSET 0.05647 2.02258 0.04270
				CHANNELS 3 Zrotation Yrotation Xrotation
				JOINT Neck
				{
					OFFSET 0 0 0
					CHANNELS 3 Zrotation Yrotation Xrotation
					JOINT Neck1
					{
						OFFSET -0.02074 1.73711 0.13117
						CHANNELS 3 Zrotation Yrotation Xrotation
						JOINT Head
						{
							OFFSET -0.02359 1.73615 -0.24320
							CHANNELS 3 Zrotation Yrotation Xrotation
							End Site
							{
								OFFSET -0.00579 1.75982 -0.09688
							}
						}
					}
				}
				JOINT LeftShoulder
				{
					OFFSET 0 0 0
					CHANNELS 3 Zrotation Yrotation Xrotation
					JOINT LeftArm
					{
						OFFSET 3.20537 1.11432 -0.27680
						CHANNELS 3 Zrotation Yrotation Xrotation
						JOINT LeftForeArm
						{
							OFFSET 5.05923 -0.00000 -0.00000
							CHANNELS 3 Zrotation Yrotation Xrotation
							JOINT LeftHand
							{
								OFFSET 3.51996 -0.00000 0.00000
								CHANNELS 3 Zrotation Yrotation Xrotation
								JOINT LeftFingerBase
								{
									OFFSET 0 0 0
									CHANNELS 3 Zrotation Yrotation Xrotation
									JOINT LeftHandIndex1
									{
										OFFSET 0.65238 -0.00000 0.00000
										CHANNELS 3 Zrotation Yrotation Xrotation
										End Site
										{
											OFFSET 0.52596 -0.00000 0.00000
										}
									}
								}
								JOINT LThumb
								{
									OFFSET 0 0 0
									CHANNELS 3 Zrotation Yrotation Xrotation
									End Site
									{
										OFFSET 0.53399 -0.00000 0.53399
									}
								}
							}
						}
					}
				}
				JOINT RightShoulder
				{
					OFFSET 0 0 0
					CHANNELS 3 Zrotation Yrotation Xrotation
					JOINT RightArm
					{
						OFFSET -2.96983 1.42602 -0.37449
						CHANNELS 3 Zrotation Yrotation Xrotation
						JOINT RightForeArm
						{
							OFFSET -5.40867 -0.00000 0.00000
							CHANNELS 3 Zrotation Yrotation Xrotation
							JOINT RightHand
							{
								OFFSET -3.12964 -0.00000 0.00000
								CHANNELS 3 Zrotation Yrotation Xrotation
								JOINT RightFingerBase
								{
									OFFSET 0 0 0
									CHANNELS 3 Zrotation Yrotation Xrotation
									JOINT RightHandIndex1
									{
										OFFSET -0.83271 -0.00000 0.00000
										CHANNELS 3 Zrotation Yrotation Xrotation
										End Site
										{
											OFFSET -0.67135 -0.00000 0.00000
										}
									}
								}
								JOINT RThumb
								{
									OFFSET 0 0 0
									CHANNELS 3 Zrotation Yrotation Xrotation
									End Site
									{
										OFFSET -0.68160 -0.00000 0.68160
									}
								}
							}
						}
					}
				}
			}
		}
	}
}
MOTION
Frames: 6
Frame Time: .0083333
0.7140 17.9983 5.6499 -179.6650 183.4340 176.6000 0.0000 0.0000 0.0000 -23.1427 -7.3567 -4.9274 2.3671 9.5921 27.6655 0.6234 -2.6126 -14.2528 0.0347 -1.2025 -3.3063 0.0000 0.0000 0.0000 20.1474 7.8341 -12.2285 -4.8727 -13.2390 40.2699 -1.3138 -3.5730 -23.2016 -0.1675 -2.6366 7.2685 -1.7110 -1.5642 19.2877 4.2148 -2.0342 1.6869 6.1319 -0.8288 -8.7635 0.4176 2.1391 -13.2676 -5.1625 3.6536 13.6512 -1.3757 1.3572 6.4455 -0.0000 0.0000 0.0000 -88.3258 20.6297 13.7672 25.3377 -36.5472 -8.4902 -0.0000 0.0000 -6.9011 16.9269 49.4989 13.0298 -7.1250 0.0000 -0.0000 -50.7566 76.2250 -39.1209 -0.0000 0.0000 0.0000 81.8024 -20.6723 -2.3344 -140.1479 47.9821 -101.6707 0.0000 0.0000 19.9922 -14.1614 2.1454 -0.5412 7.1250 -0.0000 -0.0000 9.5469 -27.7252 4.0615
0.7325 18.0022 5.6362 -179.6000 183.8000 176.6880 0.0000 0.0000 0.0000 -23.2722 -7.3594 -4.9743 2.3472 9.5546 27.5460 0.6276 -2.2804 -14.3593 0.0477 -1.4093 -3.8758 0.0000 0.0000 0.0000 20.2561 7.5247 -12.4979 -4.9490 -13.3261 40.6018 -1.3473 -3.2825 -23.3257 -0.1950 -2.8438 7.8443 -1.9807 -1.4260 19.2937 4.2283 -1.9057 1.5441 6.2776 -0.7487 -8.9298 -0.1170 2.2175 -12.5695 -4.4587 3.7265 13.3488 -1.0635 1.4394 6.2072 -0.0000 -0.0000 0.0000 -88.3405 20.6053 13.6114 25.0015 -36.2055 -8.2908 -0.0000 0.0000 -6.7391 16.9511 49.5234 13.0535 -7.1250 0.0000 -0.0000 -50.8254 76.2473 -39.1996 -0.0000 -0.0000 0.0000 80.9854 -20.7371 -1.6135 -141.0850 47.4138 -102.3639 0.0000 0.0000 20.6729 -14.5718 1.7629 -0.4582 7.1250 -0.0000 -0.0000 9.2644 -28.1141 3.8520
0.7493 18.0282 5.6336 -179.6190 184.1060 176.5950 0.0000 0.0000 0.0000 -23.3436 -7.3458 -4.7638 2.3358 9.5330 27.4773 0.6343 -2.0452 -14.4847 0.0398 -1.2875 -3.5401 0.0000 0.0000 0.0000 20.4514 7.1035 -12.5372 -5.0055 -13.3899 40.8463 -1.3783 -2.8414 -23.3609 -0.2799 -3.4026 9.4017 -2.1272 -1.3812 19.4831 4.2304 -1.8773 1.4935 6.3711 -0.7230 -9.0885 -0.2394 2.3129 -12.5740 -4.3056 3.8624 13.5049 -0.9821 1.5079 6.2552 0.0000 -0.0000 0.0000 -88.4532 20.5985 13.1612 24.7800 -35.9782 -8.1603 -0.0000 0.0000 -6.3412 17.1500 49.0989 13.1294 -7.1250 0.0000 -0.0000 -49.1603 76.1002 -37.6656 0.0000 -0.0000 0.0000 80.1614 -20.8041 -0.4498 -142.0160 46.8291 -103.0460 0.0000 0.0000 21.3953 -14.9647 0.9746 -0.2605 7.1250 -0.0000 -0.0000 9.0284 -28.9198 3.5770
0.7627 18.0385 5.6243 -179.8930 184.5060 176.6060 0.0000 0.0000 0.0000 -23.0902 -7.3888 -4.7112 2.3262 9.5148 27.4192 0.6370 -1.7864 -14.5714 0.0265 -1.0517 -2.8910 0.0000 0.0000 0.0000 20.9803 6.9217 -12.6675 -5.0574 -13.4482 41.0703 -1.3831 -2.9020 -23.4273 -0.2589 -3.2737 9.0417 -2.0626 -1.2889 19.5498 4.2883 -1.7359 1.4843 6.3656 -0.6544 -9.1531 -0.1608 2.2084 -12.8980 -4.3342 3.7310 13.8480 -1.0124 1.4342 6.4191 -0.0000 0.0000 0.0000 -88.4787 20.6970 12.9637 24.8526 -36.0529 -8.2030 -0.0000 0.0000 -6.2655 17.5999 48.9650 13.4567 -7.1250 0.0000 -0.0000 -48.3153 76.2043 -37.0542 -0.0000 0.0000 0.0000 79.4286 -20.4811 0.5435 -142.6236 46.4364 -103.4878 0.0000 0.0000 22.2304 -15.4425 0.8273 -0.2285 7.1250 -0.0000 -0.0000 8.6710 -29.0728 3.4005
0.7731 18.0312 5.6040 -180.1000 184.9910 176.6830 0.0000 0.0000 0.0000 -22.8492 -7.3294 -4.8805 2.3353 9.5321 27.4743 0.6411 -1.6043 -14.6616 0.0244 -1.0083 -2.7715 0.0000 0.0000 0.0000 21.5071 6.7143 -12.7883 -5.1233 -13.5213 41.3526 -1.3543 -3.5680 -23.5247 -0.1689 -2.6479 7.2998 -2.0103 -1.1299 19.5775 4.2506 -1.5169 1.4045 6.2403 -0.5469 -9.2862 -0.1649 2.2908 -12.3146 -4.0133 3.7636 13.4202 -0.9133 1.4927 6.1762 -0.0000 0.0000 0.0000 -88.2252 20.8875 13.0215 24.9914 -36.1952 -8.2848 -0.0000 0.0000 -6.4190 16.9947 49.4471 13.0735 -7.1250 0.0000 -0.0000 -50.5173 76.2247 -38.9188 -0.0000 0.0000 0.0000 78.9751 -20.0986 1.4288 -143.1155 46.1119 -103.8432 0.0000 0.0000 23.4686 -15.9490 0.9400 -0.2686 7.1250 -0.0000 -0.0000 8.2693 -28.9592 3.2624
0.7845 18.0251 5.5894 -180.1210 185.4440 176.7450 0.0000 0.0000 0.0000 -22.8147 -7.1478 -5.1403 2.3636 9.5856 27.6449 0.6560 -1.5427 -14.8514 0.0185 -0.8791 -2.4162 0.0000 0.0000 0.0000 21.8077 6.3287 -12.8862 -5.1988 -13.6042 41.6745 -1.2947 -4.1905 -23.3716 -0.0862 -1.8938 5.2123 -2.0725 -0.9597 19.4530 4.1397 -1.3182 1.4549 6.0910 -0.4563 -9.1866 -0.2064 2.4238 -12.1703 -3.6109 3.8763 13.1638 -0.7714 1.5841 6.0626 0.0000 -0.0000 0.0000 -87.8791 20.5867 13.1647 24.8820 -36.0832 -8.2203 -0.0000 0.0000 -6.4619 16.2113 49.9547 12.5479 -7.1250 0.0000 -0.0000 -52.9468 76.1729 -40.9295 0.0000 -0.0000 0.0000 78.5915 -19.4365 2.2850 -143.5079 45.8487 -104.1254 0.0000 0.0000 24.3567 -16.0547 1.4993 -0.4314 7.1250 -0.0000 -0.0000 8.1448 -28.3834 3.3247
